<svg width="40" height="40" viewBox="0 0 40 40" fill="none" xmlns="http://www.w3.org/2000/svg">
<circle cx="20" cy="20" r="20" fill="#F4A81D"/>
<path d="M20.2857 24.7143C20.2857 24.487 20.1954 24.269 20.0346 24.1082C19.8739 23.9475 19.6559 23.8572 19.4286 23.8572H15.1428V23H16V18.914C15.7259 18.6928 15.3821 18.5763 15.03 18.5855C14.6779 18.5946 14.3405 18.7287 14.0783 18.9638L11.1438 21.6042C11.0652 21.6751 10.963 21.7143 10.8571 21.7143H10.4286V27.7143H13C13.4546 27.7143 13.8907 27.5337 14.2122 27.2122C14.5337 26.8907 14.7143 26.4547 14.7143 26C14.7143 25.8864 14.7594 25.7774 14.8398 25.697C14.9202 25.6166 15.0292 25.5715 15.1428 25.5715H19.4286C19.6559 25.5715 19.8739 25.4812 20.0346 25.3204C20.1954 25.1597 20.2857 24.9417 20.2857 24.7143Z" fill="black"/>
<path d="M7 28.5715H9.57143V20.8572H7V28.5715ZM7.85714 26.8572H8.71429V27.7143H7.85714V26.8572Z" fill="black"/>
<path d="M22.4286 22.5714C23.3754 22.5714 24.1429 21.8039 24.1429 20.8571C24.1429 19.9103 23.3754 19.1428 22.4286 19.1428C21.4818 19.1428 20.7143 19.9103 20.7143 20.8571C20.7143 21.8039 21.4818 22.5714 22.4286 22.5714Z" fill="black"/>
<path d="M16.8571 23H19.4286C19.8832 23 20.3193 23.1806 20.6408 23.5021C20.9622 23.8236 21.1429 24.2596 21.1429 24.7143C21.1429 25.169 20.9622 25.605 20.6408 25.9265C20.3193 26.248 19.8832 26.4286 19.4286 26.4286H16.8571V32H28V11.4286H16.8571V23ZM19.8571 20.8572C19.8571 20.3486 20.008 19.8514 20.2905 19.4286C20.5731 19.0057 20.9747 18.6761 21.4445 18.4815C21.9144 18.2868 22.4314 18.2359 22.9302 18.3351C23.429 18.4344 23.8872 18.6793 24.2469 19.0389C24.6065 19.3985 24.8514 19.8567 24.9506 20.3555C25.0498 20.8543 24.9989 21.3713 24.8043 21.8412C24.6096 22.3111 24.2801 22.7127 23.8572 22.9952C23.4343 23.2778 22.9372 23.4286 22.4286 23.4286C21.7468 23.4279 21.0931 23.1568 20.6111 22.6747C20.129 22.1926 19.8578 21.5389 19.8571 20.8572ZM18.5714 31.1429H17.7143V30.2857H18.5714V31.1429ZM27.1429 31.1429H26.2857V30.2857H27.1429V31.1429ZM26.2857 12.2857H27.1429V13.1429H26.2857V12.2857ZM17.7143 12.2857H18.5714V13.1429H17.7143V12.2857ZM17.7143 14.4286C17.7143 14.3149 17.7594 14.2059 17.8398 14.1255C17.9202 14.0452 18.0292 14 18.1429 14C18.4839 14 18.8109 13.8646 19.052 13.6234C19.2931 13.3823 19.4286 13.0553 19.4286 12.7143C19.4286 12.6006 19.4737 12.4916 19.5541 12.4113C19.6345 12.3309 19.7435 12.2857 19.8571 12.2857H25C25.1137 12.2857 25.2227 12.3309 25.3031 12.4113C25.3834 12.4916 25.4286 12.6006 25.4286 12.7143C25.4286 13.0553 25.564 13.3823 25.8052 13.6234C26.0463 13.8646 26.3733 14 26.7143 14C26.828 14 26.937 14.0452 27.0173 14.1255C27.0977 14.2059 27.1429 14.3149 27.1429 14.4286V29C27.1429 29.1137 27.0977 29.2227 27.0173 29.3031C26.937 29.3834 26.828 29.4286 26.7143 29.4286C26.3733 29.4286 26.0463 29.564 25.8052 29.8052C25.564 30.0463 25.4286 30.3733 25.4286 30.7143C25.4286 30.828 25.3834 30.937 25.3031 31.0173C25.2227 31.0977 25.1137 31.1429 25 31.1429H19.8571C19.7435 31.1429 19.6345 31.0977 19.5541 31.0173C19.4737 30.937 19.4286 30.828 19.4286 30.7143C19.4286 30.3733 19.2931 30.0463 19.052 29.8052C18.8109 29.564 18.4839 29.4286 18.1429 29.4286C18.0292 29.4286 17.9202 29.3834 17.8398 29.3031C17.7594 29.2227 17.7143 29.1137 17.7143 29V27.2857H18.5714V28.6143C18.9829 28.699 19.3606 28.9024 19.6577 29.1995C19.9547 29.4966 20.1582 29.8742 20.2429 30.2857H24.6143C24.6989 29.8742 24.9024 29.4966 25.1995 29.1995C25.4966 28.9024 25.8742 28.699 26.2857 28.6143V14.8143C25.8742 14.7296 25.4966 14.5262 25.1995 14.2291C24.9024 13.932 24.6989 13.5544 24.6143 13.1429H20.2429C20.1582 13.5544 19.9547 13.932 19.6577 14.2291C19.3606 14.5262 18.9829 14.7296 18.5714 14.8143V22.1429H17.7143V14.4286Z" fill="black"/>
<path d="M19.4286 8V8.85714H30.1428C30.2565 8.85714 30.3655 8.9023 30.4459 8.98267C30.5263 9.06304 30.5714 9.17205 30.5714 9.28571V29.4286H31.4286V8H19.4286Z" fill="black"/>
<path d="M17.7143 10.5714H28.4286C28.5422 10.5714 28.6513 10.6165 28.7316 10.6969C28.812 10.7773 28.8572 10.8863 28.8572 10.9999V31.1428H29.7143V9.71423H17.7143V10.5714Z" fill="black"/>
</svg>
