<svg width="100" height="72" viewBox="0 0 100 72" fill="none" xmlns="http://www.w3.org/2000/svg">
<path d="M25.956 39.4907C25.956 39.4907 25.956 39.4907 25.956 39.4417C26.3484 38.4116 27.3014 35.0762 25.4515 32.2313C25.4515 32.2313 25.4515 32.2313 25.4515 32.1822C25.003 31.4464 24.3303 30.7597 23.4334 30.1711C20.7426 28.3072 19.8457 33.5066 20.5744 35.5667C21.8638 39.0493 24.05 39.687 25.8439 39.8341C25.8439 39.8341 25.8439 39.736 25.956 39.5398V39.4907ZM55.7227 35.5667C53.2001 35.2724 49.276 35.812 43.5581 39.1474C43.5021 39.1474 43.39 39.2455 43.3339 39.2455C38.6251 41.8452 34.701 45.1806 32.8511 47.0936C25.0591 53.8135 20.9668 58.2281 18.7245 61.024C16.4822 58.9148 11.4931 59.8958 11.4931 59.8958C9.86738 61.7597 10.0916 62.986 11.1567 63.7708C8.69016 62.054 11.3249 59.8468 11.3249 59.8468C11.3249 59.8468 13.7914 58.13 16.7625 55.0888C16.7625 55.0888 16.8186 55.0398 16.8746 54.9907C19.5654 52.2439 22.5925 48.418 24.5545 43.8072L23.4334 43.4638C10.1477 36.2044 -0.447263 50.9195 3.36467 55.4812C-3.81073 50.0366 9.13864 33.4575 9.13864 33.4575C7.84931 32.7218 1.57083 34.0952 1.57083 34.0952C1.57083 34.0952 3.14045 28.6506 8.01748 24.187C15.7535 17.0746 26.4044 15.7012 26.4044 15.7012C30.4406 5.54773 14.2959 1.32938 14.2959 1.32938C24.7788 -0.485493 32.795 7.55881 32.795 7.55881L38.3448 7.2645C38.3448 7.2645 36.0464 3.58571 37.0554 3.43856C42.9976 2.6047 53.3122 6.82305 53.3122 6.82305L51.5183 2.65375C51.6305 2.7028 58.3574 3.34045 63.9071 6.33254C69.4569 9.27558 72.54 14.524 72.54 14.524C72.54 14.524 84.088 6.72495 92.6088 13.4449C89.6377 12.0224 79.323 14.3768 76.1278 18.6933C74.5581 20.8025 75.9596 23.0097 80.7805 22.6664C81.3411 22.6664 81.9017 22.5192 82.4062 22.3721L82.5183 22.6664C82.5183 22.6664 101.073 32.5746 98.663 51.8515C98.663 51.8515 96.701 49.1537 91.5437 48.6632C91.5437 48.6632 91.9921 67.793 76.6883 70.1474C76.6883 70.1474 78.0337 67.4005 77.0807 63.7217C75.9035 59.16 73.9975 58.179 73.9975 58.179C73.9975 58.179 72.2037 62.4464 68.5599 65.5857C65.2525 68.4306 59.7589 70.0983 59.4225 70.1964C59.871 69.8531 68.8963 62.3974 66.2055 53.6664C63.9632 46.4069 54.9379 46.7012 46.4171 48.7613C38.7372 50.6252 33.2996 47.3388 32.9072 47.1426C33.4117 46.7012 33.9723 46.2107 34.5328 45.7202C35.5419 44.8373 36.5509 44.0525 37.5039 43.3167L37.8402 43.6601C37.8402 43.6601 43.2218 46.0635 46.9216 43.8072C50.9578 41.2566 50.8457 36.4987 50.8457 36.4987L50.7335 36.2044C52.4153 35.7629 54.097 35.5177 55.7227 35.5177V35.5667Z" fill="#A7A9AC"/>
<path d="M92.552 13.4451C92.2718 13.5923 88.2356 20.8518 82.3495 22.4214C81.7889 22.5685 81.2844 22.6666 80.7238 22.7157C75.9029 23.059 74.5014 20.8518 76.0711 18.7426C79.2663 14.4261 89.581 12.0717 92.552 13.4942V13.4451Z" fill="white"/>
<path d="M16.2563 65.293C17.9941 65.4402 19.5077 65.4402 19.6198 65.4402C20.1243 63.331 19.6198 61.9576 18.7229 61.1237C20.9091 58.3278 25.0574 53.9133 32.8494 47.1934C33.1858 47.4386 38.6234 50.676 46.3594 48.812C54.8241 46.7519 63.8494 46.4576 66.1478 53.7171C68.8946 62.4481 59.8133 69.9038 59.3648 70.2471C59.4208 69.8547 60.8784 62.4481 52.9181 60.1427C45.2382 57.8864 36.9417 61.8104 32.8494 63.1348C25.1695 65.7835 16.2563 66.5683 11.7717 64.312C11.4914 64.1649 11.2672 64.0668 11.099 63.9196C12.2202 64.7535 14.3503 65.1459 16.2002 65.293H16.2563Z" fill="white"/>
<path d="M50.7901 36.598C50.7901 36.598 50.9022 41.3559 46.8661 43.9066C43.2223 46.2119 37.7847 43.7594 37.7847 43.7594L37.4484 43.4161C39.5786 41.7483 41.5406 40.424 43.3344 39.3449C43.3905 39.3449 43.4465 39.2467 43.5587 39.2467C45.801 38.0205 48.2675 36.9414 50.678 36.3037L50.7901 36.598Z" fill="white"/>
<path d="M14.1844 1.33081C14.1844 1.33081 30.3291 5.59821 26.2929 15.7026C15.6419 14.6726 14.1844 1.33081 14.1844 1.33081Z" fill="white"/>
<path d="M25.4498 32.2315C26.2906 33.8992 26.683 36.2536 25.9543 39.4419C25.9543 39.4419 25.9543 39.4419 25.9543 39.491C25.8982 39.6872 25.8422 39.7853 25.8422 39.7853C24.0483 39.6381 21.8621 38.9514 20.5727 35.5179C19.844 33.5068 20.7409 28.3074 23.4317 30.1223C24.3286 30.7109 24.9452 31.4467 25.4498 32.1334C25.4498 32.1334 25.4498 32.1334 25.4498 32.1824V32.2315Z" fill="white"/>
<path d="M23.3764 43.4651L24.4975 43.8085C22.4794 48.4192 19.4523 52.2452 16.8176 54.992C17.5463 53.9129 15.248 46.9968 3.30765 55.4825C-0.504287 50.9208 10.0907 36.1566 23.3764 43.4651Z" fill="white"/>
<path d="M84.7036 22.7163C89.0761 20.6562 92.1032 16.1435 93.2244 14.5249C93.3365 14.3777 93.3925 14.2306 93.4486 14.1815C93.6728 13.9853 93.7849 13.7401 93.7849 13.4458C93.7849 13.1515 93.7289 13.0534 93.6167 12.9062C93.5607 12.8081 93.5046 12.7591 93.3925 12.661C89.5806 9.61981 84.5354 8.88406 78.9296 10.4537C76.2949 11.1894 74.1647 12.2685 72.8753 12.9553C71.6421 11.1894 68.7831 7.70684 64.4667 5.40146C62.1122 4.1752 58.0761 2.50748 51.9097 1.62457C51.7976 1.62457 51.7416 1.62457 51.7416 1.62457C51.3492 1.52647 50.9007 1.62457 50.6204 1.86982C50.228 2.16412 50.0598 2.65463 50.2841 3.09609L51.0128 4.81286C47.4251 3.58659 41.0906 1.72267 36.7181 2.36033C36.2135 2.45843 35.8211 2.70368 35.5969 3.09609C35.4287 3.39039 35.0924 4.02805 36.2696 6.28437L33.2425 6.43153C31.3365 4.71476 23.7687 -1.41657 13.9586 0.300201C13.9586 0.300201 13.9586 0.300201 13.9025 0.300201C13.9025 0.300201 13.8465 0.300201 13.7904 0.300201C13.7904 0.300201 13.7343 0.300201 13.6783 0.300201C13.6783 0.300201 13.6222 0.300201 13.5662 0.300201C13.5662 0.300201 13.5101 0.300201 13.4541 0.349252C13.4541 0.349252 13.398 0.349252 13.3419 0.398302C13.3419 0.398302 13.2859 0.398302 13.2298 0.496403C13.2298 0.496403 13.2298 0.545454 13.1738 0.594505C13.1738 0.594505 13.1738 0.643555 13.1177 0.692606C13.1177 0.692606 13.1177 0.741656 13.1177 0.790707C13.1177 0.790707 13.1177 0.888808 13.0617 0.937859C13.0617 0.986909 13.0617 1.08501 13.0617 1.13406C13.0617 1.13406 13.0617 1.18311 13.0617 1.23216C13.0617 1.23216 13.0617 1.33026 13.0617 1.37931C13.0617 1.62457 13.5101 4.96001 15.1919 8.49165C16.8175 11.778 19.0598 14.1325 21.8067 15.5059C17.8826 16.6341 11.9966 18.8904 7.11953 23.354C2.07432 27.9647 0.448645 33.5075 0.392587 33.7527C0.280471 34.1451 0.39259 34.5375 0.728937 34.8318C1.06528 35.1261 1.51374 35.2242 1.9622 35.1261C3.81211 34.7337 5.71807 34.4394 7.0074 34.3413C5.83019 36.009 3.98028 38.8049 2.46672 41.9442C-0.840696 48.8112 -0.840689 53.6182 2.57884 56.2179C2.57884 56.2179 2.69095 56.2669 2.74701 56.316C2.80306 56.316 2.91519 56.365 2.97125 56.4141C3.02731 56.4141 3.08336 56.4141 3.13942 56.4141C3.13942 56.4141 3.25153 56.4141 3.30758 56.4141C3.36364 56.4141 3.47577 56.4141 3.53183 56.4141C3.53183 56.4141 3.53182 56.4141 3.58787 56.4141C3.58787 56.4141 3.7 56.4141 3.75606 56.4141C3.75606 56.4141 3.75606 56.4141 3.81212 56.4141C3.81212 56.4141 3.92423 56.4141 3.98028 56.316C3.98028 56.316 3.98029 56.316 4.03635 56.316C10.6512 51.6071 13.5101 52.2448 14.4631 52.7353C15.4161 53.2258 15.6403 54.1087 15.5843 54.4521C12.7814 57.297 10.4269 58.9647 10.4269 58.9647C10.4269 58.9647 10.3709 59.0138 10.3148 59.0628C10.1466 59.21 8.63308 60.5343 8.7452 62.2511C8.7452 62.8888 9.08155 63.8698 10.2588 64.7036C10.483 64.8508 10.7633 65.047 11.1557 65.2432C13.2298 66.2733 15.9206 66.7147 18.9477 66.7147C23.6566 66.7147 29.0381 65.6356 33.2985 64.1641C33.9712 63.9679 34.756 63.6736 35.5969 63.3793C39.9694 61.8097 46.5282 59.4552 52.5264 61.221C58.917 63.085 58.3564 68.7258 58.1322 70.0011C58.02 70.3445 58.1322 70.7369 58.4685 71.0312C58.6927 71.2274 59.0291 71.3745 59.3654 71.3745C59.7018 71.3745 59.4775 71.3745 59.5897 71.3745C59.5897 71.3745 59.6457 71.3745 59.7018 71.3745C59.7018 71.3745 59.7018 71.3745 59.7578 71.3745C60.3745 71.1783 65.9802 69.4615 69.3437 66.5185C71.6981 64.4584 73.3238 62.0059 74.2207 60.3872C74.7253 61.1229 75.2858 62.3002 75.7343 64.066C76.5752 67.3033 75.398 69.8049 75.398 69.8049C75.2298 70.1973 75.2858 70.6388 75.5661 70.9331C75.8464 71.2274 76.2949 71.4236 76.7994 71.3255C83.5824 70.2954 88.4594 65.979 90.982 58.9157C92.2714 55.2859 92.6077 51.8524 92.7198 50.0375C96.0833 50.7242 97.4287 52.441 97.4847 52.49C97.765 52.8824 98.3256 53.0786 98.8301 52.9805C99.3347 52.8824 99.727 52.49 99.7831 51.9995C101.801 35.6657 89.1882 25.7575 84.6475 22.7163H84.7036ZM81.9567 21.3429C81.5083 21.441 81.0598 21.5391 80.6113 21.5882C78.369 21.7353 77.1918 21.2939 76.8555 20.7543C76.5191 20.2638 76.9115 19.5771 77.1357 19.2828C79.4902 16.0454 86.4413 14.1325 90.0851 14.1325C93.7289 14.1325 90.4214 14.1325 90.5336 14.1325C89.0761 16.2416 85.8808 20.2638 81.9567 21.3429ZM17.4342 7.75589C16.5933 5.99007 16.0888 4.2733 15.8085 3.04703C18.3871 4.02805 22.8718 6.03912 24.7777 9.32551C25.7307 10.9442 25.8989 12.6119 25.3944 14.4268C21.9749 13.7891 19.3401 11.5328 17.4342 7.70684V7.75589ZM3.81212 53.7163C3.47577 51.8033 4.65298 48.7622 7.39982 46.1625C9.47396 44.2495 15.0237 40.2274 22.6475 44.3967C22.6475 44.3967 22.7597 44.3967 22.7597 44.4457C21.2461 47.634 19.228 50.3318 17.4342 52.441C17.1539 52.0486 16.8175 51.6071 16.3691 51.3128C14.4631 49.8413 10.7072 49.1546 3.75606 53.7163H3.81212ZM22.3672 30.8587C22.3672 30.8587 22.4794 30.9078 22.6475 31.0059C23.3202 31.4964 23.8808 32.0359 24.3293 32.6736C25.1141 34.2432 25.2823 36.1562 24.8898 38.4616C23.7687 38.1182 22.5915 37.3334 21.8067 35.1261C21.3021 33.7527 21.8067 31.2511 22.4233 30.8097L22.3672 30.8587ZM53.3112 59.0628C49.9477 58.0818 46.5842 58.1799 43.445 58.7195C45.1828 57.2479 46.4161 55.6293 47.0327 54.0106C47.2569 53.422 46.8645 52.7843 46.2479 52.5881C45.5752 52.3919 44.8464 52.7353 44.6222 53.2748C43.3889 56.5122 38.8483 59.7986 32.4016 62.0059C28.1412 63.4774 23.6005 64.3112 19.7886 64.4093C19.9007 63.4283 19.7886 62.6435 19.5083 62.0549C19.6204 61.9078 19.7325 61.8097 19.8446 61.6625C21.6946 59.3081 25.5065 55.1388 33.0743 48.5169C35.0924 49.498 40.1936 51.4109 46.6964 49.8413C53.3112 48.2226 58.2443 48.2226 61.3835 49.7432C63.1213 50.6261 64.2985 51.9995 64.9152 53.9616C66.6529 59.4552 63.1774 64.5074 60.7108 67.2543C60.3184 63.9188 58.2443 60.4853 53.3112 59.0628ZM44.0616 40.2274C44.0616 40.2274 44.1177 40.2274 44.1738 40.1783C45.9676 39.1973 47.7054 38.4125 49.3311 37.873C49.0508 39.2954 48.322 41.6008 46.0797 42.9742C44.0616 44.2495 41.2027 43.71 39.577 43.2195C41.0906 42.0913 42.6041 41.1103 44.0056 40.2764L44.0616 40.2274ZM97.5408 49.4489C96.2515 48.6641 94.3455 47.8302 91.6547 47.585C91.3184 47.585 90.926 47.634 90.6457 47.8793C90.3654 48.0755 90.2533 48.4188 90.2533 48.7131C90.2533 48.9093 90.4775 65.1451 78.4251 68.6277C78.7054 67.3524 78.8175 65.5375 78.2569 63.4774C77.0236 58.6704 74.9495 57.4441 74.5571 57.1989C74.2207 57.0517 73.8283 57.0027 73.492 57.1008C73.1556 57.1989 72.8754 57.4442 72.7072 57.7875C72.7072 57.7875 70.9694 61.9077 67.6059 64.8017C66.5408 65.7337 65.1954 66.5185 63.9061 67.1562C66.4287 63.9188 69.0634 58.9157 67.3256 53.373C66.5408 50.8714 64.9712 48.9584 62.6168 47.8302C58.917 45.9663 53.3112 45.9173 46.0237 47.7321C40.9224 48.9584 36.8862 47.7321 34.9803 46.9473C35.1484 46.8002 35.2606 46.7021 35.4287 46.5549C36.1575 45.9663 36.8302 45.3777 37.5589 44.8381C38.3437 45.1324 40.586 45.9663 43.1086 45.9663C45.6312 45.9663 46.2479 45.672 47.6493 44.7891C51.4052 42.4347 52.0218 38.5597 52.0779 37.1372C53.3112 36.892 54.4884 36.7448 55.6095 36.7448C57.5155 36.9901 58.3003 37.7749 58.3564 37.8239C58.8048 38.2654 59.5897 38.3635 60.1502 37.9711C60.7108 37.5787 60.7669 36.892 60.3184 36.4014C60.1502 36.2543 58.917 34.979 56.1141 34.5866C56.0019 34.5866 55.8898 34.5866 55.7777 34.5866C52.134 34.1942 47.8175 35.4695 42.8844 38.3635C42.8284 38.3635 42.7162 38.4616 42.6602 38.5106C37.9513 41.1103 33.9152 44.4948 31.9531 46.5549C25.4504 52.1957 20.6855 56.9046 17.8266 60.4853C16.4812 59.8476 14.7994 59.7495 13.4541 59.7986C14.4631 58.9647 16.0327 57.6404 17.7145 55.9236C17.7145 55.9236 17.7705 55.8255 17.8266 55.8255C20.2371 53.3239 23.5445 49.3508 25.7307 44.2986C26.1792 43.3176 26.5716 42.2875 26.9079 41.1594C27.0761 40.7179 27.1882 40.2274 27.2443 39.7859C27.2443 39.7859 27.2443 39.7859 27.2443 39.7369C27.6367 38.5597 28.6457 34.979 26.6837 31.8397C26.6837 31.8397 26.6837 31.7907 26.6276 31.7416C24.4414 27.5233 19.5644 26.8366 19.3962 26.8366C18.7235 26.7385 18.0508 27.1799 17.9387 27.7685C17.8266 28.3571 18.3311 28.9457 19.0038 29.0439C19.0598 29.0439 19.7325 29.142 20.5173 29.4853C18.9477 31.0059 18.8356 34.4394 19.3962 35.96C20.3492 38.6087 21.9748 40.1783 24.3853 40.7669C24.2172 41.3556 23.9929 41.9442 23.7687 42.4837C17.4342 39.1483 10.7072 39.9821 5.60596 44.7891C4.37269 45.9173 3.41971 47.1926 2.69096 48.4679C3.81212 43.4157 7.90433 37.1372 10.1466 34.2432C10.3148 33.998 10.4269 33.7037 10.3709 33.4094C10.3148 33.1151 10.0906 32.8698 9.8103 32.6736C8.68914 32.0359 6.05443 32.2812 3.47577 32.7226C4.31664 30.8097 5.99836 27.7685 8.91337 25.1198C16.2569 18.3999 26.4595 16.9774 26.5716 16.9284C26.6276 16.9284 26.6837 16.9284 26.7398 16.9284C26.8519 16.9284 26.964 16.8303 27.0201 16.7812C27.1322 16.7322 27.1882 16.6341 27.2443 16.585C27.3003 16.4869 27.3564 16.3888 27.4125 16.2907C28.4775 13.5439 28.3654 10.9442 26.964 8.5407C25.3944 5.84292 22.5354 3.92995 19.9568 2.60558C26.7958 3.68469 31.6168 8.39355 31.6728 8.49165C31.9531 8.7369 32.3456 8.88406 32.6819 8.88406L38.2316 8.58975C38.6801 8.58975 39.0725 8.3445 39.2407 8.00115C39.4649 7.65779 39.4649 7.26539 39.2407 6.92203C38.7361 6.13722 38.2877 5.25431 38.0634 4.61665C43.6692 4.3714 52.4703 7.95209 52.5824 8.00115C53.0309 8.19735 53.5915 8.09925 53.9839 7.80494C54.3763 7.51064 54.4884 7.02013 54.3202 6.57868L53.3112 4.2733C58.02 5.10716 61.1593 6.43153 63.0652 7.46159C68.2226 10.2084 71.1936 15.1625 71.2497 15.2116C71.4179 15.5059 71.7542 15.7021 72.0905 15.8002C72.4829 15.8492 72.8193 15.8002 73.1556 15.604C73.1556 15.604 75.9585 13.7401 79.6583 12.71C82.4052 11.9252 84.9278 11.8271 87.1701 12.3666C82.5734 13.0534 77.0797 15.3587 74.8934 18.3508C73.9405 19.6752 73.8283 21.0486 74.6131 22.1768C75.1177 22.9125 76.4631 24.0897 79.7144 24.0897C82.9658 24.0897 80.3871 24.0897 80.7795 24.0897C81.1159 24.0897 81.4522 24.0407 81.7885 23.9426C82.8536 24.5312 98.0453 33.4094 97.4847 49.7432L97.5408 49.4489Z" fill="#414042"/>
</svg>
