<svg width="595" height="310" viewBox="0 0 595 310" fill="none" xmlns="http://www.w3.org/2000/svg">
<path d="M561.681 66.8613C569.904 60.0917 575.607 50.6672 577.729 46.9505L578.127 46.2868C578.392 46.0214 578.525 45.6231 578.79 45.3577C579.453 44.0303 579.719 42.7029 579.719 41.5082C579.719 40.3136 579.719 41.11 579.719 40.9773V40.5791C579.586 39.6499 579.321 38.8535 578.923 38.057C578.923 37.7916 578.658 37.6588 578.525 37.3933C578.525 37.2606 578.392 37.1279 578.26 36.9951C577.994 36.5969 577.729 36.3314 577.464 36.066V35.8005C577.199 35.8005 577.066 35.6678 577.066 35.6678C558.365 18.8099 535.023 28.8981 526.667 33.4112C522.688 27.8362 516.455 20.6683 507.967 15.4915C501.998 11.9075 491.786 7.12896 476.534 4.60692H476.269C473.881 4.07597 471.229 4.60691 469.372 6.33251C468.178 7.39442 467.25 8.85455 466.852 10.4474C458.629 7.79264 447.488 5.13788 438.867 6.598C436.082 7.12896 433.827 8.72182 432.634 11.2439C432.236 12.173 431.573 13.5004 431.705 15.757C423.615 8.58908 406.373 -3.35742 384.888 0.890218C384.888 0.890218 384.622 0.890218 384.49 0.890218C384.224 0.890218 383.959 0.890235 383.827 1.15571C383.561 1.15571 383.296 1.28843 383.031 1.42116C382.765 1.42116 382.633 1.68666 382.368 1.68666C382.102 1.68666 381.97 1.95212 381.704 2.08486C381.572 2.2176 381.307 2.35036 381.174 2.4831C381.041 2.61584 380.776 2.88131 380.643 3.01404C380.511 3.14678 380.378 3.27951 380.246 3.54499C380.113 3.81047 379.98 3.94321 379.848 4.20868L380.909 5.00512L379.715 4.34143C379.715 4.47417 379.582 4.60689 379.45 4.73963C379.317 5.13785 379.185 5.40335 379.052 5.80156C379.052 5.80156 379.052 5.93428 379.052 6.06702C378.919 6.73071 378.787 7.12894 378.787 7.6599C378.787 7.6599 378.787 7.92536 378.787 8.0581H380.113L378.787 8.19084C378.787 8.45632 378.787 8.85455 378.787 9.12003C378.787 10.3147 379.98 19.8718 384.224 29.96C386.877 36.1987 390.325 41.5082 394.304 45.4904C383.163 50.269 373.747 56.7732 366.054 64.8703C353.189 78.2769 349.078 94.6037 348.945 95.2674C348.282 97.9222 348.945 100.842 351.067 102.834C353.189 104.825 355.975 105.621 358.627 104.957C359.025 104.957 359.423 104.825 359.821 104.692C351.067 121.019 340.59 147.699 355.577 160.973H355.842C356.107 161.371 356.505 161.637 356.77 161.769H357.036C357.433 162.168 357.964 162.433 358.362 162.566C358.362 162.566 358.494 162.566 358.627 162.566C359.025 162.566 359.423 162.831 359.688 162.831H359.953C360.219 162.831 360.484 162.831 360.882 162.831H361.014C361.545 162.831 361.943 162.831 362.473 162.699C362.473 162.699 362.739 162.699 363.004 162.699C363.402 162.699 363.667 162.566 364.065 162.433C364.198 162.433 364.463 162.3 364.595 162.168C364.861 162.035 365.259 161.769 365.656 161.637C365.656 161.637 365.922 161.504 365.922 161.371H366.187C377.062 152.478 382.368 151.681 384.224 151.814C379.052 157.389 375.073 160.708 375.073 160.708C374.808 160.84 374.675 161.106 374.41 161.238C373.481 162.168 368.84 166.946 369.237 173.583C369.237 176.371 370.431 180.353 374.543 183.804C375.338 184.468 376.134 184.999 377.328 185.795C382.633 188.848 389.795 190.441 398.283 190.441C406.771 190.441 422.023 187.786 433.695 183.273H433.827C435.552 182.609 437.408 181.813 439.398 181.017C448.947 177.034 463.536 171.061 476.003 175.309C486.746 178.893 486.481 189.246 485.95 193.494C485.95 193.759 485.95 194.025 485.95 194.29V194.689C485.95 194.954 485.95 195.352 485.95 195.751C485.95 195.751 485.95 196.016 485.95 196.149C485.95 196.68 485.95 196.945 486.083 197.211C486.083 197.476 486.083 197.609 486.083 197.742V198.007C486.216 198.273 486.481 198.671 486.614 198.936V199.202C486.879 199.467 487.144 199.865 487.277 200.131C487.277 200.131 487.277 200.264 487.542 200.396C487.675 200.662 487.807 200.927 487.94 201.06C488.47 201.591 489.133 201.989 489.929 202.52C489.929 202.52 490.062 202.52 490.194 202.52C490.46 202.653 490.725 202.786 490.99 202.918C490.99 202.918 491.256 202.918 491.388 202.918H491.521C491.786 202.918 492.051 203.051 492.317 203.184C492.449 203.184 492.714 203.184 492.847 203.184L493.112 201.856V203.184C493.245 203.184 493.378 203.184 493.643 203.184C493.908 203.184 493.908 203.184 494.041 203.184H494.173C494.439 203.184 494.704 203.184 494.969 203.184C495.102 203.184 495.367 203.184 495.5 203.184H495.765C495.897 203.184 496.03 203.184 496.163 203.051C497.754 202.52 511.946 197.609 520.964 188.583C523.352 186.193 525.739 183.406 527.861 180.22C529.187 186.724 527.33 191.768 527.198 192.167C527.198 192.299 527.065 192.565 526.933 192.698C526.137 195.22 526.667 198.007 528.259 200.131C530.116 202.387 533.033 203.582 535.951 203.051C553.856 199.865 566.854 187.123 573.352 166.15C575.474 159.247 576.536 152.61 577.066 147.699C578.79 148.761 579.586 149.69 579.851 150.088C581.575 153.009 584.891 154.336 588.207 153.672C591.523 153.009 594.042 150.088 594.44 146.637C598.817 106.019 576.536 79.737 561.946 67.1268L561.681 66.8613Z" fill="white"/>
<path d="M380.113 167.344C380.113 167.344 385.948 162.699 392.978 154.469C392.978 154.469 393.11 154.336 393.243 154.203C399.609 146.77 406.771 136.416 411.413 123.939L408.761 123.01C377.328 103.364 352.261 143.186 361.28 155.531C344.303 140.797 374.94 95.9311 374.94 95.9311C371.89 93.94 357.035 97.6567 357.035 97.6567C357.035 97.6567 360.749 82.9227 372.288 70.8435C390.59 51.5964 415.79 47.8797 415.79 47.8797C425.339 20.4028 387.142 8.9873 387.142 8.9873C411.944 4.07597 430.909 25.8451 430.909 25.8451L444.04 25.0487C444.04 25.0487 438.602 15.0933 440.989 14.695C455.048 12.4385 479.451 23.854 479.451 23.854L475.207 12.5713C475.473 12.704 491.388 14.4296 504.518 22.5267C517.648 30.491 524.943 44.694 524.943 44.694C524.943 44.694 552.264 23.5886 572.424 41.7738C565.395 37.9243 540.991 44.2958 533.431 55.9768C529.718 61.6845 533.033 67.6578 544.439 66.7286C545.766 66.7286 547.092 66.3304 548.286 65.9322L548.551 66.7286C548.551 66.7286 592.451 93.5418 586.748 145.708C586.748 145.708 582.106 138.407 569.904 137.08C569.904 137.08 570.965 188.848 534.757 195.22C534.757 195.22 537.941 187.786 535.686 177.831C532.901 165.486 528.391 162.831 528.391 162.831C528.391 162.831 524.147 174.38 515.526 182.875C507.701 190.574 494.704 195.087 493.908 195.352C494.969 194.423 516.322 174.247 509.956 150.619C504.651 130.974 483.298 131.771 463.138 137.346C444.968 142.39 432.103 133.496 431.175 132.965C432.368 131.771 433.695 130.443 435.021 129.116C437.408 126.726 439.796 124.603 442.05 122.612L442.846 123.541C442.846 123.541 455.578 130.045 464.332 123.939C473.881 117.037 473.616 104.161 473.616 104.161L473.351 103.364M456.507 111.329C456.374 111.329 456.109 111.594 455.976 111.594C444.835 118.629 435.551 127.656 431.175 132.832C412.739 151.018 403.057 162.964 397.752 170.53C392.447 164.822 380.643 167.477 380.643 167.477" fill="#A7A9AC"/>
<path d="M572.424 41.641C571.761 42.0392 562.212 61.6845 548.286 65.9321C546.96 66.3303 545.766 66.5958 544.44 66.7286C533.034 67.6577 529.718 61.6845 533.431 55.9767C540.991 44.2957 565.395 37.9243 572.424 41.7737V41.641Z" fill="white"/>
<path d="M473.616 104.161C473.616 104.161 473.881 117.037 464.332 123.939C455.711 130.178 442.846 123.541 442.846 123.541L442.05 122.612C447.09 118.098 451.732 114.514 455.976 111.594C456.109 111.594 456.242 111.329 456.507 111.329C461.812 108.01 467.648 105.09 473.351 103.364L473.616 104.161Z" fill="white"/>
<path d="M387.142 8.85449C387.142 8.85449 425.339 20.4028 415.79 47.7469C390.591 44.9594 387.142 8.85449 387.142 8.85449Z" fill="white"/>
<path d="M413.668 92.4799C415.657 96.993 416.586 103.364 414.862 111.992C414.862 111.992 414.862 111.992 414.862 112.125C414.729 112.656 414.596 112.922 414.596 112.922C410.352 112.523 405.18 110.665 402.129 101.373C400.405 95.9311 402.527 81.8608 408.893 86.7721C411.015 88.365 412.474 90.3561 413.668 92.2144C413.668 92.2144 413.668 92.2144 413.668 92.3471V92.4799Z" fill="white"/>
<path d="M553.989 66.7286C564.334 61.1536 571.496 48.9416 574.148 44.5612C574.414 44.163 574.546 43.7648 574.679 43.6321C575.209 43.1011 575.475 42.4374 575.475 41.641C575.475 40.8446 575.342 40.5791 575.077 40.1809C574.944 39.9154 574.811 39.7827 574.546 39.5172C565.527 31.2874 553.591 29.2963 540.328 33.5439C534.095 35.535 529.055 38.4553 526.004 40.3136C523.086 35.535 516.322 26.1106 506.11 19.8719C500.54 16.5534 490.99 12.0403 476.401 9.65099C476.136 9.65099 476.003 9.65099 476.003 9.65099C475.075 9.38551 474.014 9.65099 473.351 10.3147C472.422 11.1111 472.024 12.4385 472.555 13.6331L474.279 18.279C465.791 14.9605 450.804 9.91647 440.459 11.6421C439.265 11.9075 438.337 12.5712 437.806 13.6331C437.408 14.4296 436.613 16.1552 439.398 22.2612L432.236 22.6594C427.727 18.0135 409.822 1.42118 386.612 6.06703C386.612 6.06703 386.612 6.06703 386.479 6.06703C386.479 6.06703 386.347 6.06703 386.214 6.06703C386.214 6.06703 386.081 6.06703 385.949 6.06703C385.949 6.06703 385.816 6.06703 385.683 6.06703C385.683 6.06703 385.551 6.06704 385.418 6.19978C385.418 6.19978 385.285 6.19978 385.153 6.33252C385.153 6.33252 385.02 6.33254 384.888 6.59802C384.888 6.59802 384.888 6.59799 384.755 6.86347C384.755 6.86347 384.755 6.99622 384.622 7.12896C384.622 7.12896 384.622 7.26168 384.622 7.39442C384.622 7.39442 384.622 7.65992 384.49 7.79266C384.49 7.92539 384.49 8.19086 384.49 8.3236C384.49 8.3236 384.49 8.45636 384.49 8.5891C384.49 8.5891 384.49 8.85456 384.49 8.9873C384.49 9.65099 385.551 18.6772 389.53 28.2344C393.376 37.1279 398.681 43.4993 405.18 47.216C395.896 50.269 381.97 56.375 370.431 68.4542C358.495 80.9316 354.648 95.9311 354.516 96.5948C354.25 97.6567 354.516 98.7186 355.311 99.5151C356.107 100.311 357.168 100.577 358.229 100.311C362.606 99.2495 367.115 98.4531 370.166 98.1877C367.381 102.701 363.004 110.267 359.423 118.762C351.598 137.346 351.598 150.354 359.688 157.389C359.688 157.389 359.953 157.522 360.086 157.655C360.219 157.655 360.484 157.787 360.617 157.92C360.749 157.92 360.882 157.92 361.015 157.92C361.015 157.92 361.28 157.92 361.412 157.92C361.545 157.92 361.81 157.92 361.943 157.92C361.943 157.92 361.943 157.92 362.076 157.92C362.076 157.92 362.341 157.92 362.473 157.92C362.473 157.92 362.473 157.92 362.606 157.92C362.606 157.92 362.871 157.92 363.004 157.655C363.004 157.655 363.004 157.655 363.137 157.655C378.787 144.912 385.551 146.637 387.805 147.965C390.06 149.292 390.591 151.681 390.458 152.611C383.827 160.309 378.256 164.822 378.256 164.822C378.256 164.822 378.124 164.955 377.991 165.088C377.593 165.486 374.012 169.07 374.277 173.716C374.277 175.442 375.073 178.096 377.858 180.353C378.389 180.884 379.052 181.282 379.98 181.813C384.888 184.601 391.254 185.795 398.416 185.795C409.556 185.795 422.289 182.875 432.369 178.893C433.96 178.362 435.817 177.565 437.806 176.769C448.151 172.521 463.669 166.15 477.86 170.928C492.98 175.972 491.653 191.237 491.123 194.689C490.858 195.618 491.123 196.68 491.919 197.476C492.449 198.007 493.245 198.405 494.041 198.405C494.837 198.405 494.306 198.405 494.439 198.405C494.439 198.405 494.571 198.405 494.704 198.405C494.704 198.405 494.704 198.405 494.837 198.405C496.295 197.874 509.558 193.229 517.516 185.264C523.086 179.689 526.933 173.052 529.055 168.672C530.248 170.663 531.575 173.849 532.636 178.627C534.625 187.388 531.84 194.158 531.84 194.158C531.442 195.22 531.575 196.414 532.238 197.211C532.901 198.14 533.962 198.538 535.156 198.273C551.204 195.485 562.742 183.804 568.711 164.69C571.761 154.867 572.557 145.575 572.822 140.664C580.78 142.522 583.963 147.168 584.095 147.301C584.759 148.363 586.085 148.894 587.278 148.628C588.472 148.363 589.401 147.301 589.533 145.974C594.308 101.772 564.466 74.9584 553.724 66.7286H553.989ZM547.49 63.0119C546.429 63.2774 545.368 63.5429 544.307 63.6756C539.002 64.0738 536.217 62.8792 535.421 61.4191C534.625 60.0917 535.553 58.2333 536.084 57.4369C541.654 48.6761 558.1 43.4993 566.721 43.4993C575.342 43.4993 567.517 43.4993 567.782 43.4993C564.334 49.2071 556.774 60.0917 547.49 63.0119ZM394.835 26.2433C392.845 21.4647 391.652 16.8189 390.989 13.5004C397.089 16.1552 407.7 21.5975 412.209 30.491C414.464 34.8713 414.862 39.3844 413.668 44.2958C405.578 42.5702 399.344 36.4642 394.835 26.1106V26.2433ZM362.606 150.619C361.81 145.443 364.595 137.213 371.094 130.178C376.001 125.001 389.132 114.116 407.169 125.399C407.169 125.399 407.434 125.399 407.434 125.532C403.853 134.16 399.079 141.46 394.835 147.168C394.172 146.106 393.376 144.912 392.315 144.115C387.805 140.133 378.919 138.275 362.473 150.619H362.606ZM406.506 88.7632C406.506 88.7632 406.771 88.8959 407.169 89.1614C408.761 90.4888 410.087 91.9489 411.148 93.6745C413.005 97.9222 413.403 103.099 412.474 109.338C409.822 108.409 407.037 106.285 405.18 100.311C403.986 96.5948 405.18 89.8251 406.639 88.6305L406.506 88.7632ZM479.717 165.088C471.759 162.433 463.802 162.699 456.374 164.159C460.486 160.177 463.404 155.796 464.863 151.416C465.393 149.823 464.465 148.097 463.006 147.566C461.414 147.035 459.69 147.965 459.16 149.425C456.242 158.186 445.499 167.079 430.247 173.052C420.167 177.034 409.424 179.291 400.405 179.556C400.67 176.902 400.405 174.778 399.742 173.185C400.007 172.787 400.273 172.521 400.538 172.123C404.915 165.752 413.933 154.469 431.838 136.549C436.613 139.204 448.682 144.381 464.067 140.133C479.717 135.753 491.388 135.753 498.815 139.868C502.927 142.257 505.712 145.974 507.171 151.283C511.282 166.15 503.059 179.822 497.224 187.255C496.295 178.229 491.388 168.937 479.717 165.088ZM457.833 114.116C457.833 114.116 457.966 114.116 458.098 113.984C462.343 111.329 466.454 109.205 470.3 107.745C469.637 111.594 467.913 117.833 462.608 121.55C457.833 125.001 451.069 123.541 447.223 122.213C450.804 119.16 454.385 116.506 457.701 114.249L457.833 114.116ZM584.361 139.071C581.31 136.947 576.801 134.691 570.435 134.027C569.639 134.027 568.711 134.16 568.047 134.824C567.384 135.354 567.119 136.284 567.119 137.08C567.119 137.611 567.65 181.548 539.134 190.972C539.798 187.521 540.063 182.609 538.737 177.034C535.819 164.026 530.911 160.708 529.983 160.044C529.187 159.646 528.259 159.513 527.463 159.778C526.667 160.044 526.004 160.708 525.606 161.637C525.606 161.637 521.495 172.787 513.537 180.618C511.017 183.14 507.834 185.264 504.784 186.99C510.752 178.229 516.985 164.69 512.874 149.69C511.017 142.921 507.304 137.744 501.733 134.691C492.98 129.647 479.717 129.514 462.475 134.425C450.406 137.744 440.857 134.425 436.347 132.301C436.745 131.903 437.011 131.638 437.408 131.24C439.133 129.647 440.724 128.054 442.448 126.594C444.305 127.39 449.61 129.647 455.579 129.647C461.547 129.647 463.006 128.85 466.321 126.461C475.208 120.09 476.666 109.603 476.799 105.754C479.717 105.09 482.502 104.692 485.155 104.692C489.664 105.356 491.521 107.479 491.653 107.612C492.714 108.807 494.571 109.072 495.898 108.01C497.224 106.948 497.356 105.09 496.295 103.763C495.898 103.364 492.98 99.9133 486.348 98.8514C486.083 98.8514 485.818 98.8514 485.553 98.8514C476.932 97.7895 466.719 101.241 455.048 109.072C454.915 109.072 454.65 109.338 454.518 109.47C443.377 116.506 433.827 125.665 429.186 131.24C413.801 146.505 402.527 159.247 395.763 168.937C392.58 167.212 388.601 166.946 385.418 167.079C387.805 164.822 391.519 161.239 395.498 156.593C395.498 156.593 395.631 156.327 395.763 156.327C401.466 149.557 409.291 138.806 414.464 125.134C415.525 122.479 416.453 119.691 417.249 116.638C417.647 115.444 417.912 114.116 418.045 112.922C418.045 112.922 418.045 112.922 418.045 112.789C418.973 109.603 421.36 99.9133 416.718 91.418C416.718 91.418 416.718 91.2852 416.586 91.1525C411.413 79.737 399.875 77.8786 399.477 77.8786C397.885 77.6132 396.294 78.8078 396.028 80.4007C395.763 81.9935 396.957 83.5864 398.548 83.8519C398.681 83.8519 400.273 84.1173 402.129 85.0465C398.416 89.1614 398.15 98.4531 399.477 102.568C401.731 109.736 405.578 113.984 411.281 115.576C410.883 117.169 410.352 118.762 409.822 120.222C394.835 111.196 378.919 113.453 366.85 126.461C363.932 129.514 361.678 132.965 359.953 136.416C362.606 122.744 372.288 105.754 377.593 97.9222C377.991 97.2585 378.256 96.462 378.124 95.6656C377.991 94.8692 377.46 94.2055 376.797 93.6745C374.145 91.9489 367.911 92.6126 361.81 93.8073C363.8 88.6305 367.779 80.4007 374.675 73.2328C392.05 55.0476 416.188 51.1982 416.453 51.0655C416.586 51.0655 416.718 51.0655 416.851 51.0655C417.116 51.0655 417.382 50.8 417.514 50.6672C417.779 50.5345 417.912 50.269 418.045 50.1363C418.177 49.8708 418.31 49.6053 418.443 49.3398C420.963 41.9065 420.697 34.8713 417.382 28.3671C413.668 21.0665 406.904 15.8897 400.803 12.3058C416.984 15.226 428.39 27.9689 428.522 28.2344C429.186 28.8981 430.114 29.2963 430.91 29.2963L444.04 28.4999C445.101 28.4999 446.029 27.8362 446.427 26.907C446.958 25.9778 446.958 24.9159 446.427 23.9867C445.234 21.8629 444.173 19.4737 443.642 17.7481C456.905 17.0844 477.727 26.7743 477.993 26.907C479.054 27.438 480.38 27.1725 481.308 26.3761C482.237 25.5796 482.502 24.2522 482.104 23.0576L479.717 16.8189C490.858 19.0754 498.285 22.6594 502.794 25.4469C514.996 32.8802 522.025 46.2869 522.158 46.4196C522.556 47.216 523.352 47.747 524.147 48.0124C525.076 48.1452 525.872 48.0125 526.667 47.4815C526.667 47.4815 533.299 42.4374 542.052 39.6499C548.551 37.5261 554.519 37.2606 559.824 38.7207C548.949 40.5791 535.951 46.8178 530.779 54.9149C528.524 58.4988 528.259 62.2155 530.116 65.2685C531.309 67.2595 534.492 70.4453 542.185 70.4453C549.877 70.4453 543.776 70.4453 544.705 70.4453C545.501 70.4453 546.296 70.3125 547.092 70.0471C549.612 71.6399 585.554 95.6656 584.228 139.868L584.361 139.071Z" fill="#414042"/>
<path d="M0 57.9678H89.1263V89.4269H39.6559V106.948H75.3329V136.815H39.6559V184.468H0V58.1006V57.9678Z" fill="white"/>
<path d="M156.899 185.53C121.09 185.53 91.7788 158.584 91.7788 120.62C91.7788 82.6572 121.09 55.844 156.899 55.844C192.709 55.844 221.622 82.6572 221.622 120.62C221.622 158.584 192.576 185.53 156.899 185.53ZM156.899 148.628C172.815 148.628 181.568 137.346 181.568 120.62C181.568 103.895 172.815 92.4799 156.899 92.4799C140.984 92.4799 132.098 103.497 132.098 120.62C132.098 137.744 140.719 148.628 156.899 148.628Z" fill="white"/>
<path d="M276.795 151.416L257.564 184.202H212.471L253.983 119.028L210.614 57.8351H257.564L279.846 89.4269L298.414 57.8351H343.508L302.658 121.682L346.823 184.202H299.873L276.663 151.416H276.795Z" fill="white"/>
<path d="M12.0692 249.908C5.03988 249.908 0.132628 246.058 0 240.218H4.77462C5.03988 243.138 7.16193 246.058 11.9366 246.058C16.7112 246.058 18.9659 243.536 18.9659 240.218C18.9659 230.794 0.132628 236.767 0.132628 223.891C0.132628 211.015 4.77462 214.201 11.6713 214.201C18.568 214.201 22.6795 217.785 23.21 223.095H18.1701C17.9048 220.705 15.6501 218.051 11.406 218.051C7.69245 218.051 4.77462 219.909 4.77462 223.626C4.77462 232.652 23.4752 227.077 23.4752 239.953C23.4752 252.828 19.4964 249.775 11.9366 249.775L12.0692 249.908Z" fill="white"/>
<path d="M34.0854 214.865H57.5607V218.582H48.1441V249.642H43.6347V218.582H34.0854V214.865Z" fill="white"/>
<path d="M80.3729 214.865C88.5959 214.865 92.4421 219.378 92.4421 225.086C92.4421 230.794 90.0548 233.714 84.2191 235.041L92.9726 249.642H87.5348L79.3119 235.439H73.8741V249.642H69.3647V214.865H80.6382H80.3729ZM80.3729 218.582H73.7415V231.723H80.3729C85.5454 231.723 87.8001 228.935 87.8001 225.086C87.8001 221.236 85.5454 218.582 80.3729 218.582Z" fill="white"/>
<path d="M105.307 214.865H109.816V236.9C109.816 243.271 113.265 246.059 118.437 246.059C123.61 246.059 126.925 243.271 126.925 236.9V214.865H131.435V236.767C131.435 245.793 125.467 249.908 118.305 249.908C111.143 249.908 105.307 245.793 105.307 236.767V214.865Z" fill="white"/>
<path d="M160.746 214.334C168.305 214.334 174.274 218.183 176.794 224.82H171.356C169.499 220.573 165.786 218.316 160.746 218.316C153.451 218.316 148.013 223.626 148.013 232.121C148.013 240.616 153.451 245.926 160.746 245.926C168.04 245.926 169.499 243.536 171.356 239.422H176.794C174.141 246.059 168.173 249.908 160.746 249.908C153.318 249.908 143.371 242.607 143.371 232.254C143.371 221.9 151.064 214.467 160.746 214.467V214.334Z" fill="white"/>
<path d="M187.404 214.865H210.879V218.582H201.463V249.642H196.953V218.582H187.404V214.865Z" fill="white"/>
<path d="M222.418 214.865H226.927V236.9C226.927 243.271 230.375 246.059 235.548 246.059C240.72 246.059 244.036 243.271 244.036 236.9V214.865H248.546V236.767C248.546 245.793 242.577 249.908 235.415 249.908C228.253 249.908 222.418 245.793 222.418 236.767V214.865Z" fill="white"/>
<path d="M273.347 214.865C281.57 214.865 285.416 219.378 285.416 225.086C285.416 230.794 283.029 233.714 277.193 235.041L285.947 249.642H280.509L272.286 235.439H266.848V249.642H262.339V214.865H273.612H273.347ZM273.347 218.582H266.716V231.723H273.347C278.52 231.723 280.774 228.935 280.774 225.086C280.774 221.236 278.52 218.582 273.347 218.582Z" fill="white"/>
<path d="M317.114 218.449H302.923V230.13H315.523V233.847H302.923V245.793H317.114V249.51H298.414V214.732H317.114V218.449Z" fill="white"/>
<path d="M340.988 249.908C333.958 249.908 329.051 246.058 328.918 240.218H333.693C333.958 243.138 336.08 246.058 340.855 246.058C345.63 246.058 347.884 243.536 347.884 240.218C347.884 230.794 329.051 236.767 329.051 223.891C329.051 211.015 333.693 214.201 340.59 214.201C347.486 214.201 351.598 217.785 352.128 223.095H347.088C346.823 220.705 344.568 218.051 340.324 218.051C336.611 218.051 333.693 219.909 333.693 223.626C333.693 232.652 352.394 227.077 352.394 239.953C352.394 252.828 348.415 249.775 340.855 249.775L340.988 249.908Z" fill="white"/>
<path d="M364.861 243.271H369.901L364.33 256.678H361.28L364.861 243.271Z" fill="white"/>
<path d="M400.272 214.865H404.782V249.642H400.272V214.865Z" fill="white"/>
<path d="M445.764 214.732V249.51H441.254L422.952 221.767V249.51H418.442V214.732H422.952L441.254 242.342V214.732H445.764Z" fill="white"/>
<path d="M475.208 214.334C482.767 214.334 488.736 218.183 491.256 224.82H485.818C483.961 220.573 480.247 218.316 475.208 218.316C467.913 218.316 462.475 223.626 462.475 232.121C462.475 240.616 467.913 245.926 475.208 245.926C482.502 245.926 483.961 243.536 485.818 239.422H491.256C488.603 246.059 482.635 249.908 475.208 249.908C467.78 249.908 457.833 242.607 457.833 232.254C457.833 221.9 465.393 214.467 475.208 214.467V214.334Z" fill="white"/>
<path d="M505.447 249.908C503.723 249.908 502.396 248.581 502.396 246.855C502.396 245.129 503.723 243.802 505.447 243.802C507.171 243.802 508.497 245.129 508.497 246.855C508.497 248.581 507.171 249.908 505.447 249.908Z" fill="white"/>
<path d="M589.4 160.575C586.881 161.106 584.361 160.973 581.973 160.309C581.443 162.831 580.78 165.353 579.984 168.008C573.352 189.512 560.488 203.449 542.715 208.626C542.715 210.485 542.981 212.476 542.981 214.467C542.981 290.924 455.976 309.773 455.976 309.773C455.976 309.773 579.586 304.331 591.39 201.06C593.114 185.53 592.716 171.99 590.727 160.309C590.329 160.309 589.931 160.575 589.533 160.575H589.4Z" fill="white"/>
</svg>
