<svg width="138" height="63" viewBox="0 0 138 63" fill="none" xmlns="http://www.w3.org/2000/svg">
<path d="M0.03125 11.4358H20.6969V17.8131H9.19546V21.365H17.4679V27.4193H9.19546V37.0794H0.03125V11.4358Z" fill="#414042"/>
<path d="M36.41 37.2948C28.1068 37.2948 21.3105 31.8324 21.3105 24.1366C21.3105 16.4409 28.1068 11.0054 36.41 11.0054C44.7131 11.0054 51.4171 16.4409 51.4171 24.1366C51.4171 31.8324 44.6824 37.2948 36.41 37.2948ZM36.41 29.8143C40.1003 29.8143 42.1299 27.5271 42.1299 24.1366C42.1299 20.7462 40.1003 18.4321 36.41 18.4321C32.7197 18.4321 30.6593 20.6655 30.6593 24.1366C30.6593 27.6078 32.6582 29.8143 36.41 29.8143Z" fill="#414042"/>
<path d="M64.2107 30.3788L59.7516 37.0252H49.2958L58.9213 23.8132L48.8652 11.4084H59.7516L64.918 17.8126L69.2233 11.4084H79.6791L70.2074 24.3514L80.4479 37.0252H69.5616L64.1799 30.3788H64.2107Z" fill="#414042"/>
<path d="M2.79847 50.3455C1.16859 50.3455 0.0307524 49.5651 0 48.3812H1.10709C1.16859 48.9732 1.66063 49.5651 2.76771 49.5651C3.8748 49.5651 4.39759 49.0539 4.39759 48.3812C4.39759 46.4707 0.0307524 47.6816 0.0307524 45.0715C0.0307524 42.4613 1.10709 43.1071 2.70621 43.1071C4.30533 43.1071 5.25866 43.8337 5.38167 44.91H4.21308C4.15157 44.4257 3.62878 43.8875 2.6447 43.8875C1.78364 43.8875 1.10709 44.2642 1.10709 45.0176C1.10709 46.8474 5.44317 45.7173 5.44317 48.3274C5.44317 50.9375 4.5206 50.3186 2.76771 50.3186L2.79847 50.3455Z" fill="#414042"/>
<path d="M7.93457 43.2417H13.3777V43.9951H11.1943V50.2917H10.1487V43.9951H7.93457V43.2417Z" fill="#414042"/>
<path d="M18.6677 43.2417C20.5743 43.2417 21.4661 44.1566 21.4661 45.3136C21.4661 46.4707 20.9126 47.0627 19.5595 47.3318L21.5892 50.2917H20.3283L18.4217 47.4125H17.1608V50.2917H16.1152V43.2417H18.7292H18.6677ZM18.6677 43.9951H17.1301V46.6591H18.6677C19.867 46.6591 20.3898 46.094 20.3898 45.3136C20.3898 44.5333 19.867 43.9951 18.6677 43.9951Z" fill="#414042"/>
<path d="M24.4473 43.2417H25.4928V47.7085C25.4928 49.0001 26.2924 49.5652 27.4917 49.5652C28.6911 49.5652 29.4599 49.0001 29.4599 47.7085V43.2417H30.5055V47.6816C30.5055 49.5113 29.1216 50.3455 27.461 50.3455C25.8004 50.3455 24.4473 49.5113 24.4473 47.6816V43.2417Z" fill="#414042"/>
<path d="M37.2717 43.1343C39.0246 43.1343 40.4085 43.9146 40.9928 45.26H39.7319C39.3014 44.399 38.4403 43.9415 37.2717 43.9415C35.5803 43.9415 34.3195 45.0179 34.3195 46.74C34.3195 48.4621 35.5803 49.5385 37.2717 49.5385C38.9631 49.5385 39.3014 49.0541 39.7319 48.22H40.9928C40.3777 49.5654 38.9939 50.3457 37.2717 50.3457C35.5496 50.3457 33.2432 48.8658 33.2432 46.7669C33.2432 44.6681 35.0268 43.1612 37.2717 43.1612V43.1343Z" fill="#414042"/>
<path d="M43.4541 43.2417H48.8973V43.9951H46.7139V50.2917H45.6683V43.9951H43.4541V43.2417Z" fill="#414042"/>
<path d="M51.5713 43.2417H52.6169V47.7085C52.6169 49.0001 53.4164 49.5652 54.6158 49.5652C55.8151 49.5652 56.5839 49.0001 56.5839 47.7085V43.2417H57.6295V47.6816C57.6295 49.5113 56.2457 50.3455 54.585 50.3455C52.9244 50.3455 51.5713 49.5113 51.5713 47.6816V43.2417Z" fill="#414042"/>
<path d="M63.3815 43.2417C65.2882 43.2417 66.18 44.1566 66.18 45.3136C66.18 46.4707 65.6265 47.0627 64.2734 47.3318L66.303 50.2917H65.0422L63.1355 47.4125H61.8747V50.2917H60.8291V43.2417H63.4431H63.3815ZM63.3815 43.9951H61.8439V46.6591H63.3815C64.5809 46.6591 65.1037 46.094 65.1037 45.3136C65.1037 44.5333 64.5809 43.9951 63.3815 43.9951Z" fill="#414042"/>
<path d="M73.5285 43.9951H70.238V46.3631H73.1594V47.1165H70.238V49.5382H73.5285V50.2917H69.1924V43.2417H73.5285V43.9951Z" fill="#414042"/>
<path d="M79.0641 50.3455C77.4342 50.3455 76.2964 49.5651 76.2656 48.3812H77.3727C77.4342 48.9732 77.9262 49.5651 79.0333 49.5651C80.1404 49.5651 80.6632 49.0539 80.6632 48.3812C80.6632 46.4707 76.2964 47.6816 76.2964 45.0715C76.2964 42.4613 77.3727 43.1071 78.9718 43.1071C80.571 43.1071 81.5243 43.8337 81.6473 44.91H80.4787C80.4172 44.4257 79.8944 43.8875 78.9103 43.8875C78.0493 43.8875 77.3727 44.2642 77.3727 45.0176C77.3727 46.8474 81.7088 45.7173 81.7088 48.3274C81.7088 50.9375 80.7862 50.3186 79.0333 50.3186L79.0641 50.3455Z" fill="#414042"/>
<path d="M84.6008 48.9996H85.7694L84.4778 51.7174H83.7705L84.6008 48.9996Z" fill="#414042"/>
<path d="M92.8418 43.2417H93.8874V50.2917H92.8418V43.2417Z" fill="#414042"/>
<path d="M103.39 43.2146V50.2646H102.344L98.1003 44.6407V50.2646H97.0547V43.2146H98.1003L102.344 48.8115V43.2146H103.39Z" fill="#414042"/>
<path d="M110.186 43.1343C111.939 43.1343 113.323 43.9146 113.907 45.26H112.646C112.215 44.399 111.354 43.9415 110.186 43.9415C108.494 43.9415 107.234 45.0179 107.234 46.74C107.234 48.4621 108.494 49.5385 110.186 49.5385C111.877 49.5385 112.215 49.0541 112.646 48.22H113.907C113.292 49.5654 111.908 50.3457 110.186 50.3457C108.464 50.3457 106.157 48.8658 106.157 46.7669C106.157 44.6681 107.91 43.1612 110.186 43.1612V43.1343Z" fill="#414042"/>
<path d="M117.197 50.3451C116.797 50.3451 116.489 50.076 116.489 49.7262C116.489 49.3764 116.797 49.1073 117.197 49.1073C117.596 49.1073 117.904 49.3764 117.904 49.7262C117.904 50.076 117.596 50.3451 117.197 50.3451Z" fill="#414042"/>
<path d="M136.511 30.9716C135.65 31.1061 134.851 30.8101 134.42 30.1643C134.389 30.1105 134.235 30.0029 134.02 29.8414C133.866 30.8639 133.62 32.1017 133.159 33.3933C131.806 37.2412 129.223 39.7437 125.686 40.6855C125.809 41.4658 125.871 42.2731 125.871 43.1611C125.871 58.6603 105.697 62.4812 105.697 62.4812C105.697 62.4812 134.358 61.378 137.095 40.4433C137.587 36.73 137.372 33.6086 136.634 30.9447C136.573 30.9447 136.511 30.9716 136.48 30.9985L136.511 30.9716Z" fill="#414042"/>
<path d="M96.2241 22.414C96.2241 22.414 96.2241 22.414 96.2241 22.3871C96.4394 21.822 96.9622 19.9922 95.9473 18.4315C95.9473 18.4315 95.9473 18.4315 95.9473 18.4046C95.7013 18.001 95.3323 17.6243 94.8403 17.3014C93.3642 16.2789 92.8721 19.1311 93.2719 20.2613C93.9792 22.1718 95.1785 22.5216 96.1626 22.6023C96.1626 22.6023 96.1626 22.5485 96.2241 22.4409V22.414ZM112.554 20.2613C111.17 20.0998 109.017 20.3958 105.88 22.2256C105.85 22.2256 105.788 22.2794 105.757 22.2794C103.174 23.7056 101.021 25.5353 100.007 26.5848C95.7321 30.2712 93.4872 32.6929 92.2571 34.2267C91.027 33.0697 88.29 33.6078 88.29 33.6078C87.3982 34.6303 87.5212 35.3031 88.1055 35.7336C86.7524 34.7918 88.1978 33.5809 88.1978 33.5809C88.1978 33.5809 89.5508 32.6391 91.1807 30.9708C91.1807 30.9708 91.2115 30.9439 91.2422 30.917C92.7183 29.4101 94.379 27.3113 95.4553 24.7819L94.8403 24.5935C87.552 20.6111 81.7397 28.6836 83.8309 31.1861C79.8946 28.1993 86.9984 19.1042 86.9984 19.1042C86.2911 18.7006 82.8468 19.454 82.8468 19.454C82.8468 19.454 83.7079 16.4672 86.3834 14.0186C90.6272 10.1169 96.4701 9.36342 96.4701 9.36342C98.6843 3.7934 89.8276 1.47928 89.8276 1.47928C95.5783 0.483671 99.9759 4.89664 99.9759 4.89664L103.02 4.73519C103.02 4.73519 101.76 2.71706 102.313 2.63634C105.573 2.1789 111.231 4.49301 111.231 4.49301L110.247 2.2058C110.309 2.23271 113.999 2.58252 117.043 4.22393C120.088 5.83843 121.779 8.71762 121.779 8.71762C121.779 8.71762 128.114 4.4392 132.789 8.12564C131.159 7.3453 125.5 8.6369 123.748 11.0048C122.886 12.1619 123.655 13.3728 126.3 13.1844C126.607 13.1844 126.915 13.1037 127.192 13.023L127.253 13.1844C127.253 13.1844 137.432 18.6199 136.11 29.1949C136.11 29.1949 135.034 27.7149 132.204 27.4458C132.204 27.4458 132.45 37.9401 124.055 39.2317C124.055 39.2317 124.793 37.7248 124.27 35.7067C123.624 33.2042 122.579 32.666 122.579 32.666C122.579 32.666 121.595 35.0071 119.596 36.7292C117.782 38.2899 114.768 39.2048 114.583 39.2586C114.829 39.0702 119.78 34.9802 118.304 30.1905C117.074 26.208 112.123 26.3695 107.449 27.4996C103.236 28.5222 100.253 26.7193 100.037 26.6117C100.314 26.3695 100.622 26.1004 100.929 25.8313C101.483 25.347 102.036 24.9164 102.559 24.5128L102.744 24.7012C102.744 24.7012 105.696 26.0197 107.726 24.7819C109.94 23.3827 109.878 20.7726 109.878 20.7726L109.817 20.6111C110.739 20.3689 111.662 20.2344 112.554 20.2344V20.2613Z" fill="#A7A9AC"/>
<path d="M132.758 8.12583C132.604 8.20655 130.39 12.189 127.161 13.0501C126.853 13.1308 126.577 13.1846 126.269 13.2115C123.624 13.3999 122.856 12.189 123.717 11.0319C125.47 8.664 131.128 7.3724 132.758 8.15274V8.12583Z" fill="white"/>
<path d="M90.9034 36.5686C91.8568 36.6493 92.6871 36.6493 92.7486 36.6493C93.0253 35.4922 92.7486 34.7388 92.2565 34.2814C93.4559 32.7476 95.7316 30.3258 100.006 26.6394C100.191 26.7739 103.174 28.5499 107.417 27.5274C112.061 26.3972 117.012 26.2358 118.273 30.2182C119.78 35.0079 114.798 39.098 114.552 39.2863C114.583 39.0711 115.382 35.0079 111.015 33.7432C106.802 32.5054 102.251 34.6581 100.006 35.3846C95.7931 36.8377 90.9034 37.2682 88.4432 36.0304C88.2895 35.9497 88.1665 35.8959 88.0742 35.8151C88.6893 36.2726 89.8578 36.4879 90.8727 36.5686H90.9034Z" fill="white"/>
<path d="M109.847 20.827C109.847 20.827 109.909 23.4371 107.695 24.8363C105.696 26.101 102.713 24.7556 102.713 24.7556L102.528 24.5672C103.697 23.6524 104.773 22.9258 105.757 22.3338C105.788 22.3338 105.819 22.28 105.88 22.28C107.11 21.6073 108.464 21.0153 109.786 20.6655L109.847 20.827Z" fill="white"/>
<path d="M89.7666 1.4801C89.7666 1.4801 98.6233 3.82113 96.4091 9.36425C90.5662 8.79917 89.7666 1.4801 89.7666 1.4801Z" fill="white"/>
<path d="M95.9465 18.4316C96.4078 19.3465 96.6231 20.6381 96.2233 22.3872C96.2233 22.3872 96.2233 22.3872 96.2233 22.4141C96.1926 22.5217 96.1618 22.5755 96.1618 22.5755C95.1777 22.4948 93.9784 22.1181 93.2711 20.2345C92.8713 19.1313 93.3633 16.279 94.8395 17.2746C95.3315 17.5975 95.6698 18.0011 95.9465 18.3778C95.9465 18.3778 95.9465 18.3778 95.9465 18.4047V18.4316Z" fill="white"/>
<path d="M94.8087 24.5942L95.4238 24.7826C94.3167 27.312 92.6561 29.4108 91.2107 30.9177C91.6105 30.3257 90.3496 26.5316 83.7994 31.1868C81.7082 28.6843 87.5204 20.5849 94.8087 24.5942Z" fill="white"/>
<path d="M128.452 13.2118C130.851 12.0816 132.512 9.60608 133.127 8.7181C133.188 8.63738 133.219 8.55665 133.25 8.52974C133.373 8.42211 133.434 8.28757 133.434 8.12612C133.434 7.96467 133.403 7.91085 133.342 7.83013C133.311 7.77631 133.28 7.7494 133.219 7.69558C131.128 6.02727 128.36 5.62364 125.285 6.48471C123.839 6.88833 122.671 7.48032 121.964 7.85703C121.287 6.88833 119.719 4.97784 117.351 3.71315C116.059 3.04044 113.845 2.12556 110.462 1.64121C110.401 1.64121 110.37 1.64121 110.37 1.64121C110.155 1.58739 109.909 1.64121 109.755 1.77575C109.54 1.9372 109.447 2.20628 109.57 2.44846L109.97 3.39025C108.002 2.71754 104.527 1.69503 102.128 2.04483C101.851 2.09865 101.636 2.23319 101.513 2.44846C101.421 2.60991 101.236 2.95972 101.882 4.1975L100.222 4.27823C99.176 3.33643 95.0245 -0.0271063 89.6428 0.914685C89.6428 0.914685 89.6428 0.914685 89.612 0.914685C89.612 0.914685 89.5813 0.914685 89.5505 0.914685C89.5505 0.914685 89.5198 0.914685 89.489 0.914685C89.489 0.914685 89.4583 0.914685 89.4275 0.914685C89.4275 0.914685 89.3968 0.914685 89.366 0.941594C89.366 0.941594 89.3353 0.941594 89.3045 0.968502C89.3045 0.968502 89.2738 0.968502 89.243 1.02232C89.243 1.02232 89.243 1.04923 89.2123 1.07614C89.2123 1.07614 89.2123 1.10304 89.1815 1.12995C89.1815 1.12995 89.1815 1.15686 89.1815 1.18377C89.1815 1.18377 89.1815 1.23759 89.1508 1.26449C89.1508 1.2914 89.1508 1.34522 89.1508 1.37213C89.1508 1.37213 89.1508 1.39904 89.1508 1.42594C89.1508 1.42594 89.1508 1.47976 89.1508 1.50667C89.1508 1.64121 89.3968 3.47098 90.3193 5.40838C91.2112 7.21123 92.4413 8.50283 93.9481 9.25627C91.7955 9.87516 88.5665 11.1129 85.891 13.5616C83.1233 16.091 82.2315 19.1316 82.2007 19.2662C82.1392 19.4814 82.2007 19.6967 82.3852 19.8581C82.5697 20.0196 82.8158 20.0734 83.0618 20.0196C84.0766 19.8043 85.1222 19.6429 85.8295 19.5891C85.1837 20.5039 84.1689 22.0377 83.3386 23.7599C81.5242 27.527 81.5242 30.164 83.4001 31.5902C83.4001 31.5902 83.4616 31.6171 83.4923 31.644C83.5231 31.644 83.5846 31.6709 83.6153 31.6978C83.6461 31.6978 83.6768 31.6978 83.7076 31.6978C83.7076 31.6978 83.7691 31.6978 83.7998 31.6978C83.8306 31.6978 83.8921 31.6978 83.9229 31.6978C83.9229 31.6978 83.9228 31.6978 83.9536 31.6978C83.9536 31.6978 84.0151 31.6978 84.0459 31.6978C84.0459 31.6978 84.0459 31.6978 84.0766 31.6978C84.0766 31.6978 84.1381 31.6978 84.1689 31.644C84.1689 31.644 84.1689 31.644 84.1996 31.644C87.8284 29.0608 89.3968 29.4106 89.9196 29.6797C90.4424 29.9488 90.5654 30.4331 90.5346 30.6215C88.997 32.1822 87.7054 33.097 87.7054 33.097C87.7054 33.097 87.6746 33.124 87.6439 33.1509C87.5516 33.2316 86.7213 33.9581 86.7828 34.8999C86.7828 35.2497 86.9673 35.7879 87.6131 36.2453C87.7361 36.326 87.8899 36.4337 88.1052 36.5413C89.243 37.1064 90.7191 37.3486 92.3798 37.3486C94.963 37.3486 97.9152 36.7566 100.252 35.9493C100.621 35.8417 101.052 35.6802 101.513 35.5188C103.912 34.6577 107.51 33.3661 110.8 34.3348C114.306 35.3573 113.999 38.4518 113.876 39.1514C113.814 39.3398 113.876 39.555 114.06 39.7165C114.183 39.8241 114.368 39.9049 114.552 39.9049C114.737 39.9049 114.614 39.9049 114.675 39.9049C114.675 39.9049 114.706 39.9049 114.737 39.9049C114.737 39.9049 114.737 39.9049 114.767 39.9049C115.106 39.7972 118.181 38.8554 120.026 37.2409C121.318 36.1108 122.21 34.7654 122.702 33.8774C122.978 34.281 123.286 34.9268 123.532 35.8955C123.993 37.6715 123.347 39.0438 123.347 39.0438C123.255 39.2591 123.286 39.5012 123.44 39.6627C123.593 39.8241 123.839 39.9318 124.116 39.8779C127.837 39.3129 130.513 36.9449 131.897 33.0701C132.604 31.0789 132.788 29.1953 132.85 28.1997C134.695 28.5764 135.433 29.5182 135.464 29.5451C135.618 29.7604 135.925 29.868 136.202 29.8142C136.479 29.7604 136.694 29.5451 136.725 29.2761C137.832 20.3156 130.912 14.8801 128.422 13.2118H128.452ZM126.945 12.4584C126.699 12.5122 126.453 12.566 126.207 12.5929C124.977 12.6736 124.331 12.4314 124.147 12.1355C123.962 11.8664 124.178 11.4897 124.301 11.3282C125.592 9.55226 129.406 8.50283 131.405 8.50283C133.403 8.50283 131.589 8.50283 131.651 8.50283C130.851 9.65989 129.098 11.8664 126.945 12.4584ZM91.5494 5.00475C91.0882 4.03605 90.8114 3.09426 90.6576 2.42155C92.0722 2.95972 94.5324 4.06296 95.578 5.86582C96.1008 6.75379 96.1931 7.66868 95.9163 8.66428C94.0404 8.31448 92.595 7.07669 91.5494 4.97784V5.00475ZM84.0766 30.2179C83.8921 29.1684 84.5379 27.5001 86.0448 26.074C87.1826 25.0245 90.2271 22.8181 94.4094 25.1053C94.4094 25.1053 94.4709 25.1053 94.4709 25.1322C93.6406 26.8812 92.5335 28.3612 91.5494 29.5182C91.3957 29.303 91.2112 29.0608 90.9651 28.8993C89.9196 28.0921 87.8592 27.7154 84.0459 30.2179H84.0766ZM94.2556 17.6786C94.2556 17.6786 94.3172 17.7055 94.4094 17.7593C94.7784 18.0284 95.086 18.3244 95.332 18.6742C95.7625 19.5352 95.8548 20.5847 95.6395 21.8494C95.0245 21.661 94.3787 21.2305 93.9481 20.0196C93.6713 19.2662 93.9481 17.8938 94.2864 17.6517L94.2556 17.6786ZM111.231 33.1509C109.386 32.6127 107.541 32.6665 105.819 32.9625C106.772 32.1553 107.448 31.2673 107.787 30.3793C107.91 30.0564 107.694 29.7066 107.356 29.599C106.987 29.4913 106.587 29.6797 106.464 29.9757C105.788 31.7516 103.297 33.5545 99.7603 34.7654C97.4231 35.5726 94.9322 36.0301 92.841 36.0839C92.9025 35.5457 92.841 35.1152 92.6873 34.7923C92.7488 34.7115 92.8103 34.6577 92.8718 34.577C93.8866 33.2854 95.9778 30.9982 100.129 27.3656C101.236 27.9037 104.035 28.9532 107.602 28.0921C111.231 27.2041 113.937 27.2041 115.659 28.0383C116.613 28.5226 117.258 29.2761 117.597 30.3524C118.55 33.3661 116.643 36.1377 115.29 37.6446C115.075 35.8148 113.937 33.9312 111.231 33.1509ZM106.157 22.8181C106.157 22.8181 106.188 22.8181 106.218 22.7912C107.202 22.253 108.156 21.8225 109.048 21.5265C108.894 22.3068 108.494 23.5715 107.264 24.3249C106.157 25.0245 104.588 24.7286 103.697 24.4595C104.527 23.8406 105.357 23.3024 106.126 22.845L106.157 22.8181ZM135.495 27.8768C134.787 27.4463 133.742 26.9889 132.266 26.8543C132.081 26.8543 131.866 26.8812 131.712 27.0158C131.558 27.1234 131.497 27.3118 131.497 27.4732C131.497 27.5808 131.62 36.4875 125.008 38.398C125.162 37.6984 125.223 36.7028 124.916 35.5726C124.239 32.9356 123.101 32.2629 122.886 32.1283C122.702 32.0476 122.486 32.0207 122.302 32.0745C122.117 32.1283 121.964 32.2629 121.871 32.4512C121.871 32.4512 120.918 34.7115 119.073 36.2991C118.489 36.8104 117.75 37.2409 117.043 37.5907C118.427 35.8148 119.872 33.0701 118.919 30.0295C118.489 28.6572 117.627 27.6077 116.336 26.9889C114.306 25.9663 111.231 25.9394 107.233 26.935C104.435 27.6077 102.221 26.935 101.175 26.5045C101.267 26.4238 101.329 26.37 101.421 26.2892C101.821 25.9663 102.19 25.6434 102.59 25.3474C103.02 25.5089 104.25 25.9663 105.634 25.9663C107.018 25.9663 107.356 25.8049 108.125 25.3205C110.185 24.0289 110.524 21.9032 110.554 21.1228C111.231 20.9883 111.877 20.9076 112.492 20.9076C113.537 21.0421 113.968 21.4726 113.999 21.4996C114.245 21.7417 114.675 21.7955 114.983 21.5803C115.29 21.365 115.321 20.9883 115.075 20.7192C114.983 20.6385 114.306 19.9389 112.769 19.7236C112.707 19.7236 112.646 19.7236 112.584 19.7236C110.585 19.5083 108.217 20.208 105.511 21.7955C105.48 21.7955 105.419 21.8494 105.388 21.8763C102.805 23.3024 100.591 25.1591 99.5143 26.2892C95.947 29.3837 93.3331 31.9669 91.7647 33.9312C91.0267 33.5814 90.1041 33.5276 89.366 33.5545C89.9196 33.097 90.7806 32.3705 91.7032 31.4287C91.7032 31.4287 91.734 31.3749 91.7647 31.3749C93.0871 30.0026 94.9014 27.823 96.1008 25.0515C96.3468 24.5133 96.5621 23.9482 96.7466 23.3293C96.8388 23.0871 96.9004 22.8181 96.9311 22.5759C96.9311 22.5759 96.9311 22.5759 96.9311 22.549C97.1464 21.9032 97.6999 19.9389 96.6236 18.2167C96.6236 18.2167 96.6236 18.1898 96.5928 18.1629C95.3935 15.8488 92.718 15.4721 92.6258 15.4721C92.2567 15.4183 91.8877 15.6604 91.8262 15.9833C91.7647 16.3062 92.0415 16.6291 92.4105 16.683C92.4413 16.683 92.8103 16.7368 93.2408 16.9251C92.3798 17.7593 92.3182 19.6429 92.6258 20.477C93.1486 21.9301 94.0404 22.7912 95.3627 23.1141C95.2705 23.437 95.1475 23.7599 95.0245 24.0558C91.5494 22.2261 87.8592 22.6835 85.0607 25.3205C84.3841 25.9394 83.8613 26.639 83.4616 27.3387C84.0766 24.5671 86.3215 21.1228 87.5516 19.5352C87.6439 19.4007 87.7054 19.2393 87.6746 19.0778C87.6439 18.9164 87.5209 18.7818 87.3671 18.6742C86.7521 18.3244 85.3067 18.4589 83.8921 18.7011C84.3534 17.6517 85.276 15.9833 86.8751 14.5303C90.9036 10.8439 96.5006 10.0635 96.5621 10.0366C96.5928 10.0366 96.6236 10.0366 96.6543 10.0366C96.7158 10.0366 96.7773 9.98279 96.8081 9.95588C96.8696 9.92898 96.9004 9.87516 96.9311 9.84825C96.9619 9.79443 96.9926 9.74062 97.0234 9.6868C97.6077 8.17993 97.5462 6.75379 96.7773 5.43528C95.9163 3.95533 94.3479 2.9059 92.9333 2.17938C96.6851 2.77136 99.3298 5.35456 99.3605 5.40838C99.5143 5.54292 99.7296 5.62364 99.9141 5.62364L102.959 5.46219C103.205 5.46219 103.42 5.32765 103.512 5.13929C103.635 4.95093 103.635 4.73567 103.512 4.54731C103.235 4.11678 102.989 3.63243 102.866 3.28262C105.942 3.14808 110.77 5.11238 110.831 5.13929C111.077 5.24693 111.385 5.19311 111.6 5.03166C111.815 4.87021 111.877 4.60113 111.785 4.35895L111.231 3.09426C113.814 3.5517 115.536 4.27823 116.582 4.8433C119.411 6.35017 121.041 9.06791 121.072 9.09482C121.164 9.25627 121.348 9.3639 121.533 9.41772C121.748 9.44462 121.933 9.41772 122.117 9.31008C122.117 9.31008 123.655 8.28757 125.685 7.72249C127.191 7.29196 128.575 7.23814 129.805 7.53413C127.284 7.91085 124.27 9.17554 123.071 10.8169C122.548 11.5435 122.486 12.2969 122.917 12.9158C123.194 13.3194 123.932 13.9652 125.715 13.9652C127.499 13.9652 126.084 13.9652 126.3 13.9652C126.484 13.9652 126.669 13.9383 126.853 13.8845C127.437 14.2074 135.771 19.0778 135.464 28.0383L135.495 27.8768Z" fill="#414042"/>
</svg>
