<svg width="40" height="40" viewBox="0 0 40 40" fill="none" xmlns="http://www.w3.org/2000/svg">
<circle cx="20" cy="20" r="20" fill="#F4A81D"/>
<path d="M25.6154 20.383V10.6538H20.5246C20.5292 10.7092 20.5384 10.7646 20.5384 10.8199V12.1538H14.0769V10.8199C14.0769 10.7646 14.0862 10.7092 14.0907 10.6538H9V32H25.6154V31.0815C25.0615 30.6753 24.6046 30.2692 24.2307 29.8399V30.6154H10.3846V13.0769H24.2307V20.6922C24.6507 20.5722 25.1169 20.4661 25.6154 20.383Z" fill="#1A1A1A"/>
<path d="M18.6921 9.43747V9.38461C18.6921 8.61992 18.0722 8 17.3075 8C16.5427 8 15.9229 8.61992 15.9229 9.38461V9.43747C15.1581 9.43747 14.5383 10.0573 14.5383 10.8221V11.6923H20.0767V10.8221C20.0767 10.0573 19.4568 9.43747 18.6921 9.43747Z" fill="#1A1A1A"/>
<path d="M22.7903 21.2139C23.0626 21.0847 23.3903 20.9554 23.7687 20.8308V13.5386H10.8457V30.1539H23.7687V29.2447C22.6103 27.5185 22.5272 25.3493 22.5226 21.6339V21.3432L22.7903 21.2139ZM15.2303 16.5386H16.3842V15.3847H18.2303V16.5386H19.3841V18.3847H18.2303V19.5385H16.3842V18.3847H15.2303V16.5386ZM21.9226 28.5385H12.6918V28.077H21.9226V28.5385ZM21.9226 26.6924H12.6918V26.2309H21.9226V26.6924ZM21.9226 24.8462H12.6918V24.3847H21.9226V24.8462ZM21.9226 23H12.6918V22.5385H21.9226V23Z" fill="#1A1A1A"/>
<path d="M27.9928 20.6368C25.9251 20.6368 24.0374 21.1399 22.9851 21.6338C22.9943 27.7261 23.1882 29.4153 27.9928 31.9999C32.7974 29.4153 32.9912 27.7261 33.0005 21.6338C31.9481 21.1399 30.0604 20.6368 27.9928 20.6368ZM28.2214 30.8186L27.993 30.9493L27.7644 30.8186C24.3016 28.844 23.9423 27.4945 23.9112 22.5812L23.909 22.2432L24.2304 22.139C24.8965 21.9226 26.2712 21.5598 27.993 21.5598C29.7142 21.5598 31.0889 21.9226 31.7551 22.139L32.0765 22.2432L32.0743 22.5807C32.0436 27.4941 31.6843 28.8431 28.2214 30.8186Z" fill="#1A1A1A"/>
<path d="M27.9928 22.0214C26.5762 22.0214 25.2889 22.2806 24.3726 22.5778C24.4028 27.3316 24.6935 28.5361 27.9928 30.4178C31.2921 28.5359 31.5828 27.3313 31.6126 22.5778C30.6962 22.2806 29.409 22.0214 27.9928 22.0214ZM27.6755 26.7796L26.4117 25.5158L26.738 25.1895L27.6755 26.127L29.4045 24.3981L29.7307 24.7244L27.6755 26.7796Z" fill="#1A1A1A"/>
</svg>
