<svg width="40" height="40" viewBox="0 0 40 40" fill="none" xmlns="http://www.w3.org/2000/svg">
<circle cx="20" cy="20" r="20" fill="#F4A81D"/>
<path d="M12.4384 9H11.4521V11.2466H12.4384V9Z" fill="black"/>
<path d="M28.8767 9H27.8904V11.2466H28.8767V9Z" fill="black"/>
<path d="M26.7945 19.6301H24.8219V21.6027H26.7945V19.6301Z" fill="black"/>
<path d="M8 31.1918H32V15.7397H8V31.1918ZM23.8356 19.137C23.8356 19.0062 23.8876 18.8808 23.9801 18.7883C24.0725 18.6958 24.198 18.6439 24.3288 18.6439H27.2877C27.4185 18.6439 27.5439 18.6958 27.6364 18.7883C27.7289 18.8808 27.7808 19.0062 27.7808 19.137V22.0959C27.7808 22.2267 27.7289 22.3521 27.6364 22.4446C27.5439 22.5371 27.4185 22.5891 27.2877 22.5891H24.3288C24.198 22.5891 24.0725 22.5371 23.9801 22.4446C23.8876 22.3521 23.8356 22.2267 23.8356 22.0959V19.137ZM23.8356 24.9452C23.8356 24.8144 23.8876 24.689 23.9801 24.5965C24.0725 24.504 24.198 24.4521 24.3288 24.4521H27.2877C27.4185 24.4521 27.5439 24.504 27.6364 24.5965C27.7289 24.689 27.7808 24.8144 27.7808 24.9452V27.9041C27.7808 28.0349 27.7289 28.1604 27.6364 28.2528C27.5439 28.3453 27.4185 28.3973 27.2877 28.3973H24.3288C24.198 28.3973 24.0725 28.3453 23.9801 28.2528C23.8876 28.1604 23.8356 28.0349 23.8356 27.9041V24.9452ZM18.0274 19.137C18.0274 19.0062 18.0794 18.8808 18.1718 18.7883C18.2643 18.6958 18.3898 18.6439 18.5205 18.6439H21.4795C21.6102 18.6439 21.7357 18.6958 21.8282 18.7883C21.9206 18.8808 21.9726 19.0062 21.9726 19.137V22.0959C21.9726 22.2267 21.9206 22.3521 21.8282 22.4446C21.7357 22.5371 21.6102 22.5891 21.4795 22.5891H18.5205C18.3898 22.5891 18.2643 22.5371 18.1718 22.4446C18.0794 22.3521 18.0274 22.2267 18.0274 22.0959V19.137ZM18.0274 24.9452C18.0274 24.8144 18.0794 24.689 18.1718 24.5965C18.2643 24.504 18.3898 24.4521 18.5205 24.4521H21.4795C21.6102 24.4521 21.7357 24.504 21.8282 24.5965C21.9206 24.689 21.9726 24.8144 21.9726 24.9452V27.9041C21.9726 28.0349 21.9206 28.1604 21.8282 28.2528C21.7357 28.3453 21.6102 28.3973 21.4795 28.3973H18.5205C18.3898 28.3973 18.2643 28.3453 18.1718 28.2528C18.0794 28.1604 18.0274 28.0349 18.0274 27.9041V24.9452ZM12.2192 19.137C12.2192 19.0062 12.2711 18.8808 12.3636 18.7883C12.4561 18.6958 12.5815 18.6439 12.7123 18.6439H15.6712C15.802 18.6439 15.9275 18.6958 16.0199 18.7883C16.1124 18.8808 16.1644 19.0062 16.1644 19.137V22.0959C16.1644 22.2267 16.1124 22.3521 16.0199 22.4446C15.9275 22.5371 15.802 22.5891 15.6712 22.5891H12.7123C12.5815 22.5891 12.4561 22.5371 12.3636 22.4446C12.2711 22.3521 12.2192 22.2267 12.2192 22.0959V19.137ZM12.2192 24.9452C12.2192 24.8144 12.2711 24.689 12.3636 24.5965C12.4561 24.504 12.5815 24.4521 12.7123 24.4521H15.6712C15.802 24.4521 15.9275 24.504 16.0199 24.5965C16.1124 24.689 16.1644 24.8144 16.1644 24.9452V27.9041C16.1644 28.0349 16.1124 28.1604 16.0199 28.2528C15.9275 28.3453 15.802 28.3973 15.6712 28.3973H12.7123C12.5815 28.3973 12.4561 28.3453 12.3636 28.2528C12.2711 28.1604 12.2192 28.0349 12.2192 27.9041V24.9452Z" fill="black"/>
<path d="M20.9863 25.4384H19.0137V27.411H20.9863V25.4384Z" fill="black"/>
<path d="M20.9863 19.6301H19.0137V21.6027H20.9863V19.6301Z" fill="black"/>
<path d="M32 11.7397H8V14.7534H32V11.7397Z" fill="black"/>
<path d="M15.1781 19.6301H13.2055V21.6027H15.1781V19.6301Z" fill="black"/>
<path d="M15.1781 25.4384H13.2055V27.411H15.1781V25.4384Z" fill="black"/>
<path d="M26.7945 25.4384H24.8219V27.411H26.7945V25.4384Z" fill="black"/>
<path d="M20.4932 9H19.5069V11.2466H20.4932V9Z" fill="black"/>
</svg>
